<svg width="14" height="14" viewBox="0 0 14 14" fill="none" xmlns="http://www.w3.org/2000/svg">
<path d="M4.99967 0.666504V1.99984H8.99967V0.666504H10.333V1.99984H12.9997C13.3679 1.99984 13.6663 2.29832 13.6663 2.6665V13.3332C13.6663 13.7014 13.3679 13.9998 12.9997 13.9998H0.999674C0.631488 13.9998 0.333008 13.7014 0.333008 13.3332V2.6665C0.333008 2.29832 0.631488 1.99984 0.999674 1.99984H3.66634V0.666504H4.99967ZM12.333 7.33317H1.66634V12.6665H12.333V7.33317ZM3.66634 3.33317H1.66634V5.99984H12.333V3.33317H10.333V4.6665H8.99967V3.33317H4.99967V4.6665H3.66634V3.33317Z" fill="#9D9E9E"/>
</svg>
