<svg width="20" height="20" viewBox="0 0 20 20" fill="none" xmlns="http://www.w3.org/2000/svg">
<g clip-path="url(#clip0_1096_5678)">
<path fill-rule="evenodd" clip-rule="evenodd" d="M2.88742 2.88742C4.57599 1.20028 7.01171 0.357422 10.0003 0.357422C12.9889 0.357422 15.4246 1.20028 17.1131 2.88742C18.8003 4.57599 19.6431 7.01171 19.6431 10.0003C19.6431 12.9889 18.8003 15.4246 17.1131 17.1131C15.4246 18.8003 12.9889 19.6431 10.0003 19.6431C7.01171 19.6431 4.57599 18.8003 2.88742 17.1131C1.20028 15.4246 0.357422 12.9889 0.357422 10.0003C0.357422 7.01171 1.20028 4.57599 2.88742 2.88742ZM8.67885 5.03885C9.16314 3.85599 10.836 3.85599 11.3217 5.03885L12.1603 7.08314L14.4446 7.28314C15.7189 7.39599 16.216 8.99742 15.226 9.81171L13.5674 11.1731L14.1103 13.6903C14.3817 14.946 12.9874 15.8931 11.9203 15.1789L10.0003 13.8946L8.08028 15.1803C7.01171 15.8931 5.61885 14.946 5.88885 13.6903L6.43171 11.1731L4.77456 9.81028C3.78456 8.99885 4.28028 7.39599 5.55599 7.28314L7.84028 7.08314L8.67885 5.03885Z" fill="#9D9E9E"/>
</g>
<defs>
<clipPath id="clip0_1096_5678">
<rect width="20" height="20" fill="white"/>
</clipPath>
</defs>
</svg>
