<svg width="20" height="20" viewBox="0 0 20 20" fill="none" xmlns="http://www.w3.org/2000/svg">
<g clip-path="url(#clip0_1096_5673)">
<path fill-rule="evenodd" clip-rule="evenodd" d="M3.50881 2.83915C5.13599 1.21198 7.48241 0.401367 10.3568 0.401367C13.2311 0.401367 15.5776 1.21198 17.2047 2.83915C18.8319 4.46631 19.6424 6.81275 19.6424 9.68708C19.6424 12.5614 18.8319 14.9078 17.2047 16.535C15.5776 18.1621 13.2311 18.9728 10.3568 18.9728C8.77571 18.9728 7.35527 18.7283 6.12371 18.2356L2.34213 19.4961C1.2084 19.874 0.13941 18.7757 0.547816 17.6526L1.85953 14.0454C1.3325 12.7852 1.07104 11.3219 1.07104 9.68708C1.07104 6.81275 1.88166 4.46631 3.50881 2.83915ZM10.4452 11.0246C11.1337 11.0246 11.6918 10.4664 11.6918 9.77792C11.6918 9.08943 11.1337 8.53129 10.4452 8.53129C9.75666 8.53129 9.19851 9.08943 9.19851 9.77792C9.19851 10.4664 9.75666 11.0246 10.4452 11.0246ZM7.15321 9.77792C7.15321 10.4664 6.59507 11.0246 5.90659 11.0246C5.21809 11.0246 4.65994 10.4664 4.65994 9.77792C4.65994 9.08943 5.21809 8.53129 5.90659 8.53129C6.59507 8.53129 7.15321 9.08943 7.15321 9.77792ZM14.983 11.0246C15.6716 11.0246 16.2297 10.4664 16.2297 9.77792C16.2297 9.08943 15.6716 8.53129 14.983 8.53129C14.2946 8.53129 13.7364 9.08943 13.7364 9.77792C13.7364 10.4664 14.2946 11.0246 14.983 11.0246Z" fill="#9D9E9E"/>
</g>
<defs>
<clipPath id="clip0_1096_5673">
<rect width="20" height="20" fill="white"/>
</clipPath>
</defs>
</svg>
