<svg width="20" height="20" viewBox="0 0 20 20" fill="none" xmlns="http://www.w3.org/2000/svg">
<g clip-path="url(#clip0_1096_5683)">
<path fill-rule="evenodd" clip-rule="evenodd" d="M2.88806 2.88806C4.57594 1.20018 7.01166 0.357422 10.0003 0.357422C12.9889 0.357422 15.4246 1.20018 17.1126 2.88806C18.8004 4.57594 19.6431 7.01166 19.6431 10.0003C19.6431 12.9889 18.8004 15.4246 17.1126 17.1126C15.4246 18.8004 12.9889 19.6431 10.0003 19.6431C7.01166 19.6431 4.57594 18.8004 2.88806 17.1126C1.20018 15.4246 0.357422 12.9889 0.357422 10.0003C0.357422 7.01166 1.20018 4.57594 2.88806 2.88806ZM4.41504 4.41504C3.21292 5.61715 2.50028 7.45464 2.50028 10.0003C2.50028 11.4925 2.74515 12.7414 3.18995 13.7616H4.57019C5.20219 13.7616 5.80829 13.5105 6.25518 13.0637C6.70206 12.6168 6.95312 12.0107 6.95312 11.3787V9.33616C6.95312 8.70418 7.20419 8.09806 7.65108 7.65118C8.09796 7.20429 8.70406 6.95324 9.33605 6.95324C9.96805 6.95324 10.5742 6.70218 11.021 6.25529C11.4679 5.80841 11.719 5.20231 11.719 4.57031V2.62142C11.1866 2.54169 10.614 2.50028 10.0003 2.50028C7.45464 2.50028 5.61715 3.21292 4.41504 4.41504ZM17.5003 10.0003C17.5003 9.94436 17.5 9.88879 17.4993 9.83355C17.1038 9.72871 16.6954 9.67396 16.2836 9.67169H13.3831C12.7512 9.67169 12.145 9.92275 11.6981 10.3696C11.2513 10.8165 11.0002 11.4226 11.0002 12.0546C11.0002 12.6866 11.2513 13.2927 11.6981 13.7396C12.145 14.1865 12.7512 14.4376 13.3831 14.4376C13.8346 14.4376 14.2675 14.6168 14.5867 14.9361C14.8803 15.2296 15.0554 15.6193 15.0817 16.031C15.2606 15.8913 15.4286 15.7426 15.5856 15.5856C16.7876 14.3834 17.5003 12.5459 17.5003 10.0003Z" fill="#9D9E9E"/>
</g>
<defs>
<clipPath id="clip0_1096_5683">
<rect width="20" height="20" fill="white"/>
</clipPath>
</defs>
</svg>
