<svg width="25" height="27" viewBox="0 0 25 27" fill="none" xmlns="http://www.w3.org/2000/svg">
<path d="M16.7729 8.34312L9.23037 15.8856C8.70966 16.4062 8.70966 17.2505 9.23037 17.7712C9.75106 18.292 10.5953 18.292 11.116 17.7712L18.6585 10.2287C20.2205 8.66664 20.2205 6.13398 18.6585 4.57188C17.0964 3.00978 14.5637 3.00978 13.0016 4.57188L5.45913 12.1144C2.85563 14.7178 2.85563 18.9389 5.45913 21.5425C8.06262 24.146 12.2837 24.146 14.8872 21.5425L22.4297 14L24.3153 15.8856L16.7729 23.4281C13.128 27.0729 7.21841 27.0729 3.57351 23.4281C-0.0713797 19.7832 -0.0713797 13.8737 3.57351 10.2287L11.116 2.68626C13.7194 0.0827692 17.9406 0.0827692 20.5441 2.68626C23.1476 5.28976 23.1476 9.51085 20.5441 12.1144L13.0016 19.6569C11.4396 21.2189 8.90685 21.2189 7.34475 19.6569C5.78265 18.0948 5.78265 15.5621 7.34475 14L14.8872 6.4575L16.7729 8.34312Z" fill="#CCCCCC"/>
</svg>
