<svg width="14" height="14" viewBox="0 0 14 14" fill="none" xmlns="http://www.w3.org/2000/svg">
<path d="M11.0194 10.0778L13.8745 12.9329L12.9317 13.8757L10.0766 11.0206C9.04996 11.8419 7.74803 12.3333 6.33203 12.3333C3.02003 12.3333 0.332031 9.64525 0.332031 6.33325C0.332031 3.02125 3.02003 0.333252 6.33203 0.333252C9.64403 0.333252 12.332 3.02125 12.332 6.33325C12.332 7.74925 11.8407 9.05118 11.0194 10.0778ZM9.68183 9.58312C10.497 8.74298 10.9987 7.59698 10.9987 6.33325C10.9987 3.75492 8.91036 1.66659 6.33203 1.66659C3.7537 1.66659 1.66536 3.75492 1.66536 6.33325C1.66536 8.91158 3.7537 10.9999 6.33203 10.9999C7.59576 10.9999 8.74176 10.4983 9.5819 9.68305L9.68183 9.58312Z" fill="#4F4F4F"/>
</svg>
