<svg width="20" height="20" viewBox="0 0 20 20" fill="none" xmlns="http://www.w3.org/2000/svg">
<path d="M8 17.748V14.4C8 13.1174 8.9948 12.1076 10.4667 11.5321C9.5431 11.188 8.5435 11 7.5 11C5.61013 11 3.86432 11.6168 2.45286 12.66C3.33199 15.1544 5.41273 17.082 8 17.748ZM16.8794 14.0859C16.4862 13.5526 15.1708 13 13.5 13C11.4939 13 10 13.7967 10 14.4V18C12.9255 18 15.4843 16.4296 16.8794 14.0859ZM7.55 9.5C8.7926 9.5 9.8 8.4926 9.8 7.25C9.8 6.00736 8.7926 5 7.55 5C6.30736 5 5.3 6.00736 5.3 7.25C5.3 8.4926 6.30736 9.5 7.55 9.5ZM13.5 10.5C14.6046 10.5 15.5 9.6046 15.5 8.5C15.5 7.39543 14.6046 6.5 13.5 6.5C12.3954 6.5 11.5 7.39543 11.5 8.5C11.5 9.6046 12.3954 10.5 13.5 10.5ZM10 20C4.47715 20 0 15.5228 0 10C0 4.47715 4.47715 0 10 0C15.5228 0 20 4.47715 20 10C20 15.5228 15.5228 20 10 20Z" fill="#BA2025"/>
</svg>
