<svg width="16" height="16" viewBox="0 0 16 16" fill="none" xmlns="http://www.w3.org/2000/svg">
<path d="M4.41555 13.0511L4.97884 13.3798C5.91988 13.9289 6.98937 14.2222 8.10541 14.2222C11.5395 14.2222 14.3233 11.4364 14.3233 7.99995C14.3233 4.56351 11.5395 1.77772 8.10541 1.77772C4.67133 1.77772 1.88748 4.56351 1.88748 7.99995C1.88748 9.11707 2.18068 10.1877 2.72976 11.1296L3.05805 11.6927L2.55013 13.5606L4.41555 13.0511ZM0.336257 15.7777L1.38705 11.9133C0.716933 10.7639 0.333008 9.42678 0.333008 7.99995C0.333008 3.7044 3.81282 0.222168 8.10541 0.222168C12.3979 0.222168 15.8778 3.7044 15.8778 7.99995C15.8778 12.2955 12.3979 15.7777 8.10541 15.7777C6.68003 15.7777 5.34427 15.3938 4.19579 14.7236L0.336257 15.7777ZM5.3006 4.35087C5.40466 4.34355 5.50906 4.34243 5.61326 4.34752C5.65536 4.35029 5.69725 4.35515 5.73917 4.36C5.86296 4.3743 5.99907 4.44974 6.04484 4.55357C6.2767 5.07967 6.50168 5.60878 6.71975 6.14077C6.76786 6.25821 6.73886 6.41043 6.64731 6.55771C6.60083 6.63323 6.52783 6.73917 6.44327 6.84751C6.35537 6.96006 6.16619 7.16702 6.16619 7.16702C6.16619 7.16702 6.08954 7.25896 6.11843 7.37337C6.12969 7.41661 6.16558 7.47961 6.19812 7.53258C6.21615 7.5619 6.23288 7.58811 6.24374 7.60624C6.44265 7.93858 6.71003 8.27551 7.03662 8.5923C7.1302 8.68307 7.22099 8.7757 7.31861 8.86172C7.68259 9.18287 8.09437 9.44529 8.5391 9.63966L8.54307 9.64145C8.60874 9.66976 8.64248 9.68524 8.73862 9.72607C8.78712 9.7466 8.83671 9.76433 8.88762 9.77779C8.90604 9.78261 8.92492 9.78533 8.94389 9.78666C9.06957 9.7942 9.14224 9.71355 9.17325 9.67645C9.73559 8.99472 9.78704 8.95024 9.79092 8.95055V8.95179C9.86484 8.87386 9.98104 8.84679 10.0847 8.85317C10.1321 8.85605 10.1792 8.86515 10.2222 8.88482C10.6355 9.07351 11.3114 9.36782 11.3114 9.36782L11.7633 9.57113C11.839 9.60769 11.9081 9.69379 11.9115 9.77748C11.9135 9.82951 11.9191 9.91351 11.9005 10.0672C11.8762 10.2684 11.815 10.5107 11.7542 10.6376C11.7115 10.7267 11.6561 10.8057 11.5918 10.8726C11.5045 10.9633 11.4397 11.0183 11.3348 11.0966C11.2709 11.1442 11.2378 11.1666 11.2378 11.1666C11.1298 11.2347 11.0689 11.2688 10.9403 11.3373C10.7402 11.4439 10.5192 11.5052 10.2928 11.5169C10.1485 11.5243 10.0045 11.5347 9.86033 11.5269C9.85396 11.5265 9.4187 11.4597 9.4187 11.4597C8.31355 11.1688 7.29148 10.6239 6.43383 9.86817C6.25848 9.7137 6.09586 9.54656 5.92987 9.3812C5.23886 8.69279 4.71573 7.95048 4.39852 7.2483C4.24209 6.90203 4.14304 6.53119 4.14147 6.1496C4.13861 5.67754 4.29304 5.21799 4.58039 4.84362C4.63703 4.76981 4.6908 4.69326 4.78356 4.60561C4.88179 4.51279 4.94432 4.46295 5.01166 4.42848C5.10143 4.38252 5.20003 4.35794 5.3006 4.35087Z" fill="#4F4F4F"/>
</svg>
