<svg width="16" height="16" viewBox="0 0 16 16" fill="none" xmlns="http://www.w3.org/2000/svg">
<path d="M8.00143 5.66661C6.71234 5.66661 5.66808 6.71125 5.66808 7.99995C5.66808 9.28896 6.71273 10.3333 8.00143 10.3333C9.29044 10.3333 10.3348 9.28865 10.3348 7.99995C10.3348 6.71093 9.29013 5.66661 8.00143 5.66661ZM8.00143 4.11106C10.1484 4.11106 11.8903 5.85102 11.8903 7.99995C11.8903 10.147 10.1504 11.8888 8.00143 11.8888C5.85438 11.8888 4.11252 10.1489 4.11252 7.99995C4.11252 5.85291 5.85249 4.11106 8.00143 4.11106ZM13.057 3.91595C13.057 4.4527 12.6208 4.88819 12.0848 4.88819C11.548 4.88819 11.1125 4.45203 11.1125 3.91595C11.1125 3.37987 11.5486 2.94439 12.0848 2.94439C12.6201 2.94371 13.057 3.37987 13.057 3.91595ZM8.00143 1.77772C6.07682 1.77772 5.76312 1.78282 4.86797 1.82268C4.2581 1.85131 3.84928 1.93333 3.46944 2.0808C3.13188 2.21172 2.88839 2.36804 2.62894 2.62748C2.3685 2.88792 2.21246 3.13077 2.08207 3.46848C1.93426 3.84919 1.85226 4.25736 1.82414 4.8664C1.78389 5.7251 1.77919 6.02521 1.77919 7.99995C1.77919 9.92456 1.78428 10.2382 1.82414 11.1333C1.85278 11.7429 1.93492 12.1523 2.08202 12.5313C2.21328 12.8693 2.36993 13.1134 2.62812 13.3716C2.88958 13.6327 3.13315 13.7893 3.46766 13.9184C3.85213 14.067 4.26069 14.1491 4.86785 14.1772C5.72657 14.2174 6.02667 14.2222 8.00143 14.2222C9.92604 14.2222 10.2397 14.217 11.1348 14.1772C11.7431 14.1487 12.1528 14.0663 12.5328 13.9193C12.8699 13.7884 13.1147 13.6312 13.3731 13.3732C13.6346 13.1113 13.7908 12.8684 13.9201 12.5331C14.0683 12.15 14.1506 11.7409 14.1787 11.1335C14.2189 10.2748 14.2237 9.97465 14.2237 7.99995C14.2237 6.07535 14.2185 5.76166 14.1787 4.86657C14.1501 4.2581 14.0677 3.84777 13.9206 3.46797C13.79 3.13135 13.6331 2.88711 13.3739 2.62748C13.113 2.36662 12.8708 2.21089 12.5328 2.08061C12.1524 1.93292 11.7436 1.8508 11.1349 1.82269C10.2763 1.78243 9.97613 1.77772 8.00143 1.77772ZM8.00143 0.222168C10.1143 0.222168 10.3782 0.229946 11.2078 0.268835C12.0355 0.307078 12.6 0.438001 13.0959 0.630501C13.6085 0.828189 14.0415 1.09522 14.4738 1.52754C14.9055 1.95986 15.1725 2.39411 15.3709 2.9055C15.5627 3.40069 15.6937 3.96587 15.7325 4.79356C15.7695 5.62319 15.7792 5.88698 15.7792 7.99995C15.7792 10.1129 15.7714 10.3767 15.7325 11.2063C15.6943 12.034 15.5627 12.5986 15.3709 13.0944C15.1732 13.6071 14.9055 14.04 14.4738 14.4724C14.0415 14.904 13.6066 15.1711 13.0959 15.3694C12.6 15.5613 12.0355 15.6922 11.2078 15.7311C10.3782 15.768 10.1143 15.7777 8.00143 15.7777C5.88845 15.7777 5.62465 15.7699 4.79502 15.7311C3.96733 15.6928 3.40345 15.5613 2.90697 15.3694C2.39492 15.1717 1.96131 14.904 1.529 14.4724C1.09669 14.04 0.8303 13.6052 0.631966 13.0944C0.439466 12.5986 0.309189 12.034 0.2703 11.2063C0.233355 10.3767 0.223633 10.1129 0.223633 7.99995C0.223633 5.88698 0.231411 5.62319 0.2703 4.79356C0.308535 3.96522 0.439466 3.40133 0.631966 2.9055C0.829646 2.39347 1.09669 1.95986 1.529 1.52754C1.96131 1.09522 2.39558 0.828835 2.90697 0.630501C3.4028 0.438001 3.96669 0.307723 4.79502 0.268835C5.62465 0.23189 5.88845 0.222168 8.00143 0.222168Z" fill="#4F4F4F"/>
</svg>
