<svg width="16" height="16" viewBox="0 0 16 16" fill="black" xmlns="http://www.w3.org/2000/svg">
<path d="M8.00143 14.2222C11.4379 14.2222 14.2237 11.4364 14.2237 7.99995C14.2237 4.56351 11.4379 1.77772 8.00143 1.77772C4.56497 1.77772 1.77919 4.56351 1.77919 7.99995C1.77919 11.4364 4.56497 14.2222 8.00143 14.2222ZM8.00143 15.7777C3.70586 15.7777 0.223633 12.2955 0.223633 7.99995C0.223633 3.7044 3.70586 0.222168 8.00143 0.222168C12.2969 0.222168 15.7792 3.7044 15.7792 7.99995C15.7792 12.2955 12.2969 15.7777 8.00143 15.7777ZM5.58264 8.91057L3.63971 8.30413C3.21978 8.17533 3.21728 7.88639 3.73374 7.6788L11.3039 4.7547C11.7429 4.57495 11.9926 4.80205 11.8503 5.36827L10.5609 11.4515C10.4711 11.8842 10.2101 11.9873 9.84857 11.7876L7.86454 10.3195L6.93984 11.2119C6.84479 11.3036 6.76748 11.3824 6.62188 11.4022C6.47621 11.4219 6.35615 11.3788 6.26883 11.1373L5.59248 8.90435L5.58264 8.91057Z" fill="#4F4F4F"/>
</svg>
