<svg width="56" height="56" viewBox="0 0 56 56" fill="none" xmlns="http://www.w3.org/2000/svg">
<path d="M15.0507 52.2665L0.5 55.5L3.73348 40.9492C1.66996 37.0904 0.5 32.6819 0.5 28C0.5 12.8122 12.8122 0.5 28 0.5C43.1877 0.5 55.5 12.8122 55.5 28C55.5 43.1877 43.1877 55.5 28 55.5C23.3181 55.5 18.9096 54.3302 15.0507 52.2665ZM15.8471 46.4552L17.6443 47.4164C20.8018 49.1049 24.3301 50 28 50C40.1503 50 50 40.1503 50 28C50 15.8497 40.1503 6 28 6C15.8497 6 6 15.8497 6 28C6 31.6699 6.8951 35.1981 8.5836 38.3557L9.54464 40.1528L7.74394 48.256L15.8471 46.4552Z" fill="#BA2025"/>
</svg>
