<svg width="20" height="16" viewBox="0 0 20 16" fill="none" xmlns="http://www.w3.org/2000/svg">
<path fill-rule="evenodd" clip-rule="evenodd" d="M1.33548 4.99675C1.36983 4.74908 1.54923 4.50569 1.87408 4.30184C2.87432 3.67418 3.91169 3.02409 5.10825 2.42482C6.30482 1.82554 7.60281 1.30598 8.85602 0.805036C9.76566 0.441421 11.0697 0.441636 11.982 0.803607L12.0492 0.830293C13.2914 1.32314 14.5777 1.83349 15.7583 2.42482C16.939 3.01615 17.958 3.66036 18.942 4.28248L18.9953 4.31616C19.718 4.77304 19.7184 5.42616 18.9924 5.88174C17.9923 6.50941 16.9549 7.15948 15.7583 7.75876C15.6539 7.81111 15.5486 7.86284 15.4426 7.91399C14.4112 8.41204 13.3157 8.85632 12.246 9.28439L12.0106 9.37855C11.1009 9.74216 9.79685 9.74195 8.88462 9.37998L8.81736 9.35329C7.73048 8.92205 6.60981 8.47741 5.55566 7.97684L5.42402 7.91386C5.31801 7.86276 5.21272 7.81108 5.10825 7.75876C4.51538 7.46184 3.96326 7.15156 3.43588 6.83745V11.9954C3.93705 12.3378 4.26599 12.9138 4.26599 13.5666C4.26599 14.6168 3.41464 15.4681 2.36443 15.4681C1.31424 15.4681 0.462891 14.6168 0.462891 13.5666C0.462891 12.9138 0.791841 12.3379 1.29302 11.9954V5.29636C1.29302 5.19236 1.30784 5.09184 1.33548 4.99675ZM5.30795 9.82978C5.32209 10.2461 5.35158 10.6545 5.38802 11.0527C5.54526 12.7704 6.93678 14.1593 8.65056 14.323C9.22518 14.3778 9.82192 14.4186 10.4333 14.4186C11.0447 14.4186 11.6414 14.3778 12.216 14.323C13.9298 14.1593 15.3213 12.7704 15.4786 11.0527C15.515 10.6549 15.5444 10.2469 15.5586 9.83096C14.5913 10.2701 13.604 10.6647 12.6863 11.0315L12.6734 11.0367C11.3373 11.5708 9.56036 11.5693 8.22599 11.0398L8.12925 11.0014C7.22809 10.6439 6.25749 10.2588 5.30795 9.82978Z" fill="#9D9E9E"/>
</svg>
