<svg width="20" height="20" viewBox="0 0 20 20" fill="none" xmlns="http://www.w3.org/2000/svg">
<g clip-path="url(#clip0_1121_2005)">
<path d="M10 0.625C12.0767 0.625 13.7358 0.677542 15.0143 0.745679L11.6673 5.20833H6.3125L9.74979 0.625254C9.8325 0.625087 9.91592 0.625 10 0.625Z" fill="#9D9E9E"/>
<path d="M3.39008 0.851556C4.46683 0.764073 6.04258 0.673402 8.17704 0.63916L4.7502 5.20827H0.734375C0.770283 4.4916 0.811396 3.88742 0.851825 3.38981C0.963129 2.01988 2.02014 0.962864 3.39008 0.851556Z" fill="#9D9E9E"/>
<path fill-rule="evenodd" clip-rule="evenodd" d="M0.625 10.0002C0.625 8.64529 0.647362 7.46816 0.681833 6.4585H19.3182C19.3526 7.46816 19.375 8.64529 19.375 10.0002C19.375 13.0841 19.2591 15.2471 19.1484 16.6103C19.0371 17.9802 17.98 19.0372 16.6101 19.1485C15.247 19.2593 13.0839 19.3752 10 19.3752C6.91608 19.3752 4.75304 19.2593 3.38988 19.1485C2.01994 19.0372 0.962925 17.9802 0.851621 16.6103C0.740867 15.2471 0.625 13.0841 0.625 10.0002ZM8.64925 9.4962C7.97 9.23341 7.33437 9.6435 7.23025 10.3643C7.15108 10.9124 7.08333 11.6343 7.08333 12.5002C7.08333 13.366 7.15108 14.088 7.23025 14.636C7.33437 15.3568 7.97 15.7669 8.64925 15.5041C9.12587 15.3197 9.76829 15.0321 10.6128 14.5835C11.4202 14.1545 12.0429 13.7747 12.5126 13.4607C13.2452 12.9709 13.2452 12.0294 12.5126 11.5397C12.0429 11.2257 11.4202 10.8458 10.6128 10.4168C9.76829 9.9682 9.12587 9.68058 8.64925 9.4962Z" fill="#9D9E9E"/>
<path d="M19.2655 5.2085C19.2296 4.49183 19.1885 3.88765 19.148 3.39004C19.0367 2.0201 17.9797 0.963091 16.6098 0.851787L16.5034 0.843262L13.2295 5.2085H19.2655Z" fill="#9D9E9E"/>
</g>
<defs>
<clipPath id="clip0_1121_2005">
<rect width="20" height="20" fill="white"/>
</clipPath>
</defs>
</svg>
