<svg width="20" height="18" viewBox="0 0 20 18" fill="none" xmlns="http://www.w3.org/2000/svg">
<path fill-rule="evenodd" clip-rule="evenodd" d="M3.53651 0.42879C4.95516 0.228374 6.48188 0.0126953 8.04358 0.0126953C9.60528 0.0126953 11.132 0.228374 12.5507 0.42879C12.7844 0.461818 13.0153 0.494418 13.2428 0.525575C14.1943 0.655861 14.9534 1.39065 15.1114 2.33235C15.1542 2.84143 15.2011 3.35053 15.2483 3.861C15.4091 5.60379 15.5714 7.36259 15.5714 9.18963C15.5714 11.4072 15.4297 13.5514 15.3599 14.3344C15.316 14.8256 15.6787 15.2593 16.1699 15.303C16.661 15.3469 17.0947 14.9841 17.1384 14.493C17.2122 13.6671 17.3571 11.4693 17.3571 9.18963C17.3571 7.72498 17.255 6.27298 17.1336 4.8758C17.1237 4.763 17.2126 4.66598 17.3259 4.66598C18.5083 4.66598 19.4712 5.62513 19.4654 6.81225C19.453 9.40426 19.4027 12.0629 19.2704 14.5413C19.1833 16.1719 17.9067 17.4749 16.2876 17.6167L15.9703 17.644C15.2393 17.7061 14.4944 17.7627 13.7422 17.8113C12.0668 17.9193 10.3487 17.9873 8.63812 17.9873C8.62429 17.9873 8.61051 17.9869 8.59681 17.9861C8.41281 17.9869 8.22839 17.9873 8.04358 17.9873C6.64921 17.9873 5.29416 17.8166 4.01846 17.6389C2.32784 17.4033 1.00318 16.0209 0.84641 14.319C0.690233 12.6235 0.53125 10.836 0.53125 8.99999C0.53125 7.09409 0.703163 5.23192 0.865619 3.47218C0.895839 3.14483 0.925731 2.82102 0.95413 2.50115C1.04483 1.47949 1.83676 0.663547 2.84436 0.525575C3.07192 0.494418 3.30276 0.461818 3.53651 0.42879ZM4.19735 8.09699C4.25355 8.43329 4.53261 8.69128 4.87265 8.71625C5.05682 8.72978 5.24251 8.74413 5.42965 8.75862C6.29284 8.8254 7.18671 8.89455 8.10232 8.89455C9.01792 8.89455 9.91181 8.8254 10.775 8.75862C10.9621 8.74413 11.1478 8.72978 11.332 8.71625C11.672 8.69128 11.9511 8.4333 12.0073 8.09699L12.031 7.95586C12.1296 7.3696 12.2319 6.76186 12.2319 6.139C12.2319 5.51616 12.1296 4.90842 12.031 4.32216L12.0073 4.18103C11.9511 3.84472 11.672 3.58675 11.332 3.56178C11.1479 3.54825 10.9622 3.53389 10.7752 3.51942C9.91196 3.45263 9.01792 3.38348 8.10232 3.38348C7.18671 3.38348 6.29284 3.45262 5.42964 3.5194C5.24254 3.53388 5.05678 3.54825 4.87265 3.56178C4.53261 3.58675 4.25355 3.84472 4.19735 4.18103L4.17366 4.32215C4.07502 4.9084 3.97276 5.51615 3.97276 6.139C3.97276 6.76188 4.07502 7.3696 4.17366 7.95586L4.19735 8.09699ZM11.2296 13.472C11.7227 13.472 12.1224 13.0722 12.1224 12.5791C12.1224 12.086 11.7227 11.6863 11.2296 11.6863H4.90402C4.41091 11.6863 4.01116 12.086 4.01116 12.5791C4.01116 13.0722 4.41091 13.472 4.90402 13.472H11.2296Z" fill="#9D9E9E"/>
</svg>
