<svg width="20" height="20" viewBox="0 0 20 20" fill="none" xmlns="http://www.w3.org/2000/svg">
<g clip-path="url(#clip0_1096_5653)">
<path fill-rule="evenodd" clip-rule="evenodd" d="M4.29088 3.19567V1.30678C4.29088 0.715047 4.77057 0.235352 5.36231 0.235352C5.95404 0.235352 6.43374 0.715046 6.43374 1.30678V2.98494C7.97624 2.87262 9.27788 2.8351 10.0003 2.8351C10.7212 2.8351 12.0189 2.87247 13.5571 2.98422V1.30678C13.5571 0.715047 14.0368 0.235352 14.6284 0.235352C15.2203 0.235352 15.6999 0.715046 15.6999 1.30678V3.1938C17.4629 3.52612 18.8687 4.83364 19.3189 6.55284C19.425 6.95854 19.0911 7.32101 18.6717 7.32101H1.32889C0.909503 7.32101 0.575612 6.95854 0.68184 6.55282C1.13114 4.83684 2.53251 3.53101 4.29088 3.19567ZM0.394105 9.78358C0.409609 9.40405 0.723543 9.10672 1.1034 9.10672H18.8971C19.277 9.10672 19.591 9.40405 19.6064 9.7836C19.633 10.4317 19.6431 10.9626 19.6431 11.3012C19.6431 12.0096 19.5984 13.5587 19.4537 15.2612C19.2639 17.494 17.517 19.2367 15.3034 19.4629C13.0323 19.6947 10.9818 19.7639 10.0003 19.7639C9.01886 19.7639 6.96838 19.6947 4.69724 19.4629C2.48362 19.2367 0.736823 17.494 0.546919 15.2612C0.402123 13.5587 0.357422 12.0096 0.357422 11.3012C0.357422 10.9626 0.367633 10.4316 0.394105 9.78358Z" fill="#9D9E9E"/>
</g>
<defs>
<clipPath id="clip0_1096_5653">
<rect width="20" height="20" fill="white"/>
</clipPath>
</defs>
</svg>
