<svg width="24" height="24" viewBox="0 0 24 24" fill="none" xmlns="http://www.w3.org/2000/svg">
<g clip-path="url(#clip0_1096_5701)">
<path fill-rule="evenodd" clip-rule="evenodd" d="M22.8925 1.0914C21.5561 -0.245206 19.3765 -0.203854 18.0915 1.18249L12.4113 7.31103C12.1623 7.57967 11.9736 7.8984 11.8578 8.24588L11.0018 10.8138C10.5551 12.1539 11.8301 13.4289 13.1702 12.9822L15.7381 12.1262C16.0856 12.0104 16.4043 11.8217 16.6729 11.5727L22.8015 5.89241C24.1878 4.60746 24.2291 2.42801 22.8925 1.0914ZM10.8396 5.85438C10.3831 6.34688 10.0371 6.9312 9.8248 7.56824L8.96884 10.1361C7.96372 13.1515 10.8324 16.0202 13.8478 15.0151L16.4157 14.1591C17.0527 13.9468 17.637 13.6008 18.1295 13.1443L21.308 10.1983C21.5699 9.95561 21.9953 10.1209 22.0191 10.4772C22.0722 11.2732 22.1057 12.0848 22.1057 12.9066C22.1057 13.3282 22.0969 13.747 22.0811 14.1625C22.0799 14.1933 22.0823 14.224 22.0868 14.2544C22.1034 14.3655 22.1094 14.4798 22.1036 14.5963C22.0311 16.0416 21.8807 17.4501 21.7319 18.7818C21.5634 20.2909 20.7572 21.6023 19.6047 22.4505C18.8747 22.9991 17.9951 23.3663 17.0382 23.477C15.6152 23.6416 14.0987 23.8115 12.5411 23.8818C12.4414 23.8862 12.3433 23.8821 12.2474 23.8699C12.2215 23.8667 12.1954 23.8652 12.1693 23.866C11.8282 23.8773 11.4849 23.8835 11.1398 23.8835C9.06326 23.8835 7.05131 23.6594 5.19846 23.445C2.76412 23.1635 0.820462 21.2246 0.54757 18.7816C0.341137 16.9336 0.130941 14.9363 0.130941 12.8747C0.130941 12.4531 0.13973 12.0342 0.155478 11.6187C0.156643 11.588 0.15434 11.5572 0.14978 11.5268C0.133132 11.4158 0.127209 11.3014 0.133052 11.185C0.20556 9.73966 0.355921 8.33106 0.504661 6.99951C0.673249 5.49027 1.4795 4.17884 2.63202 3.33063C3.36194 2.78206 4.24146 2.41498 5.19846 2.30429C6.6214 2.13968 8.13794 1.96966 9.69549 1.89951C9.79523 1.89502 9.89337 1.89913 9.98916 1.91122C10.0151 1.91449 10.0412 1.91612 10.0673 1.91526C10.4084 1.90395 10.7517 1.89776 11.0969 1.89776C11.9058 1.89776 12.7049 1.93177 13.4887 1.98598C13.8444 2.01056 14.0087 2.43521 13.7664 2.69667L10.8396 5.85438Z" fill="#9D9E9E"/>
</g>
<defs>
<clipPath id="clip0_1096_5701">
<rect width="24" height="24" fill="white"/>
</clipPath>
</defs>
</svg>
