<svg width="21" height="20" viewBox="0 0 21 20" fill="none" xmlns="http://www.w3.org/2000/svg">
<path d="M16.7346 14.3911L20.9512 18.6076L19.5588 20L15.3422 15.7834C13.8261 16.9964 11.9034 17.722 9.81219 17.722C4.92091 17.722 0.951172 13.7523 0.951172 8.86102C0.951172 3.96973 4.92091 0 9.81219 0C14.7035 0 18.6732 3.96973 18.6732 8.86102C18.6732 10.9522 17.9476 12.875 16.7346 14.3911ZM14.7593 13.6605C15.9632 12.4198 16.7041 10.7273 16.7041 8.86102C16.7041 5.05324 13.62 1.96911 9.81219 1.96911C6.00441 1.96911 2.92029 5.05324 2.92029 8.86102C2.92029 12.6688 6.00441 15.7529 9.81219 15.7529C11.6785 15.7529 13.371 15.012 14.6117 13.8081L14.7593 13.6605Z" fill="#4F4F4F"/>
</svg>
