<svg width="20" height="20" viewBox="0 0 20 20" fill="none" xmlns="http://www.w3.org/2000/svg">
<path fill-rule="evenodd" clip-rule="evenodd" d="M2.88742 2.88693C4.57599 1.19979 7.01171 0.356934 10.0003 0.356934C12.9889 0.356934 15.4246 1.19979 17.1131 2.88693C18.8003 4.57551 19.6431 7.01122 19.6431 9.99979C19.6431 12.9884 18.8003 15.4241 17.1131 17.1126C15.4246 18.7998 12.9889 19.6426 10.0003 19.6426C7.01171 19.6426 4.57599 18.7998 2.88742 17.1126C1.20028 15.4241 0.357422 12.9884 0.357422 9.99979C0.357422 7.01122 1.20028 4.57551 2.88742 2.88693ZM8.67885 5.03836C9.16314 3.8555 10.836 3.8555 11.3217 5.03836L12.1603 7.08265L14.4446 7.28265C15.7189 7.39551 16.216 8.99693 15.226 9.81122L13.5674 11.1726L14.1103 13.6898C14.3817 14.9455 12.9874 15.8926 11.9203 15.1784L10.0003 13.8941L8.08028 15.1798C7.01171 15.8926 5.61885 14.9455 5.88885 13.6898L6.43171 11.1726L4.77456 9.80979C3.78456 8.99836 4.28028 7.39551 5.55599 7.28265L7.84028 7.08265L8.67885 5.03836Z" fill="#9D9E9E"/>
</svg>
