<svg width="20" height="20" viewBox="0 0 20 20" fill="none" xmlns="http://www.w3.org/2000/svg">
<g clip-path="url(#clip0_1529_5243)">
<path fill-rule="evenodd" clip-rule="evenodd" d="M4.29039 3.19616V1.30727C4.29039 0.715536 4.77008 0.23584 5.36182 0.23584C5.95355 0.23584 6.43325 0.715534 6.43325 1.30727V2.98543C7.97575 2.87311 9.27739 2.83558 9.99985 2.83558C10.7207 2.83558 12.0184 2.87296 13.5566 2.98471V1.30727C13.5566 0.715536 14.0363 0.23584 14.6279 0.23584C15.2198 0.23584 15.6994 0.715534 15.6994 1.30727V3.19428C17.4624 3.52661 18.8682 4.83413 19.3184 6.55333C19.4245 6.95903 19.0906 7.3215 18.6712 7.3215H1.3284C0.909015 7.3215 0.575124 6.95903 0.681352 6.55331C1.13065 4.83733 2.53202 3.5315 4.29039 3.19616ZM0.393616 9.78407C0.409121 9.40454 0.723055 9.10721 1.10291 9.10721H18.8966C19.2765 9.10721 19.5905 9.40454 19.6059 9.78408C19.6325 10.4321 19.6426 10.9631 19.6426 11.3017C19.6426 12.0101 19.5979 13.5591 19.4532 15.2616C19.2634 17.4945 17.5165 19.2372 15.3029 19.4634C13.0318 19.6952 10.9813 19.7644 9.99983 19.7644C9.01838 19.7644 6.96789 19.6952 4.69675 19.4634C2.48313 19.2372 0.736335 17.4945 0.546431 15.2616C0.401635 13.5592 0.356934 12.0101 0.356934 11.3017C0.356934 10.9631 0.367145 10.4321 0.393616 9.78407Z" fill="white"/>
</g>
<defs>
<clipPath id="clip0_1529_5243">
<rect width="20" height="20" fill="white"/>
</clipPath>
</defs>
</svg>
