<svg width="24" height="24" viewBox="0 0 24 24" fill="none" xmlns="http://www.w3.org/2000/svg">
<g clip-path="url(#clip0_1184_8094)">
<path fill-rule="evenodd" clip-rule="evenodd" d="M22.8925 1.09189C21.5561 -0.244718 19.3765 -0.203366 18.0915 1.18298L12.4113 7.31152C12.1623 7.58016 11.9736 7.89888 11.8578 8.24637L11.0018 10.8142C10.5551 12.1544 11.8301 13.4294 13.1702 12.9827L15.7381 12.1267C16.0856 12.0109 16.4043 11.8221 16.6729 11.5732L22.8015 5.8929C24.1878 4.60795 24.2291 2.4285 22.8925 1.09189ZM10.8396 5.85487C10.3831 6.34737 10.0371 6.93168 9.8248 7.56873L8.96884 10.1366C7.96372 13.152 10.8324 16.0207 13.8478 15.0156L16.4157 14.1596C17.0527 13.9473 17.637 13.6013 18.1295 13.1448L21.308 10.1988C21.5699 9.9561 21.9953 10.1214 22.0191 10.4777C22.0722 11.2737 22.1057 12.0853 22.1057 12.9071C22.1057 13.3286 22.0969 13.7475 22.0811 14.163C22.0799 14.1937 22.0823 14.2245 22.0868 14.2549C22.1034 14.366 22.1094 14.4803 22.1036 14.5968C22.0311 16.0421 21.8807 17.4506 21.7319 18.7823C21.5634 20.2914 20.7572 21.6028 19.6047 22.451C18.8747 22.9996 17.9951 23.3668 17.0382 23.4775C15.6152 23.6421 14.0987 23.812 12.5411 23.8823C12.4414 23.8867 12.3433 23.8826 12.2474 23.8704C12.2215 23.8672 12.1954 23.8656 12.1693 23.8665C11.8282 23.8778 11.4849 23.884 11.1398 23.884C9.06326 23.884 7.05131 23.6599 5.19846 23.4455C2.76412 23.164 0.820462 21.2251 0.54757 18.7821C0.341137 16.9341 0.130941 14.9368 0.130941 12.8751C0.130941 12.4536 0.13973 12.0347 0.155478 11.6192C0.156643 11.5885 0.15434 11.5577 0.14978 11.5273C0.133132 11.4163 0.127209 11.3019 0.133052 11.1854C0.20556 9.74015 0.355921 8.33155 0.504661 7C0.673249 5.49076 1.4795 4.17933 2.63202 3.33112C3.36194 2.78255 4.24146 2.41547 5.19846 2.30478C6.6214 2.14017 8.13794 1.97015 9.69549 1.9C9.79523 1.89551 9.89337 1.89962 9.98916 1.91171C10.0151 1.91498 10.0412 1.91661 10.0673 1.91575C10.4084 1.90444 10.7517 1.89825 11.0969 1.89825C11.9058 1.89825 12.7049 1.93226 13.4887 1.98647C13.8444 2.01105 14.0087 2.4357 13.7664 2.69716L10.8396 5.85487Z" fill="#9D9E9E"/>
</g>
<defs>
<clipPath id="clip0_1184_8094">
<rect width="24" height="24" fill="white"/>
</clipPath>
</defs>
</svg>
