<svg width="19" height="19" viewBox="0 0 19 19" fill="none" xmlns="http://www.w3.org/2000/svg">
<path fill-rule="evenodd" clip-rule="evenodd" d="M0 9.49999C0 12.1106 0.0760043 14.3998 0.218907 16.7476C0.281093 17.7693 1.06103 18.602 2.07143 18.7045C5.95095 19.0985 9.3564 19.0985 13.2359 18.7045C14.2463 18.602 15.0263 17.7693 15.0885 16.7476C15.2314 14.3998 15.3074 12.1106 15.3074 9.49999C15.3074 6.88937 15.2314 4.60014 15.0885 2.25237C15.0263 1.2307 14.2463 0.398048 13.2359 0.29545C9.3564 -0.0984835 5.95095 -0.0984835 2.07143 0.29545C1.06103 0.398049 0.281093 1.2307 0.218907 2.25237C0.0760043 4.60014 0 6.88937 0 9.49999ZM5.64972 4.11156C4.87958 4.11156 4.25524 4.74486 4.25524 5.52606V6.43009C4.25524 7.21129 4.87958 7.84458 5.64972 7.84458H9.65786C10.428 7.84458 11.0523 7.21129 11.0523 6.43009V5.52606C11.0523 4.74486 10.428 4.11156 9.65786 4.11156H5.64972ZM17.396 14.0674C17.1867 14.1684 16.9697 13.9905 16.9781 13.7554C17.0258 12.3944 17.0505 10.9989 17.0505 9.50008C17.0505 9.35487 17.0503 9.2106 17.0498 9.06726C17.0492 8.87112 17.2055 8.7115 17.399 8.7115H18.5136C18.6633 8.7115 18.7978 8.80832 18.8375 8.95485C19.1518 10.1119 18.9834 11.2659 18.561 12.6964C18.3755 13.3242 17.9395 13.8049 17.396 14.0674ZM18.3748 6.94338C18.5309 6.94338 18.6685 6.83814 18.7082 6.68511C19.0912 5.21154 19.1444 4.01896 18.5806 2.756C18.3015 2.13046 17.7618 1.76377 17.1948 1.62359C16.973 1.56877 16.7963 1.7811 16.818 2.01163C16.8222 2.05538 16.8256 2.09935 16.8283 2.14351C16.9181 3.61987 16.982 5.07427 17.0176 6.59704C17.022 6.78943 17.1768 6.94338 17.3666 6.94338H18.3748Z" fill="#9D9E9E"/>
</svg>
