<svg width="28" height="10" viewBox="0 0 28 10" fill="none" xmlns="http://www.w3.org/2000/svg">
<path d="M0 4.84321C0 3.37979 0.442664 2.21835 1.32799 1.35888C2.23725 0.47619 3.49346 0.0232285 5.09662 0V2.02091C4.25915 2.06736 3.64899 2.29965 3.26614 2.71777C2.90723 3.13589 2.72777 3.84437 2.72777 4.84321H5.09662V9.82578H0V4.84321ZM11.7366 2.02091C10.8991 2.06736 10.2889 2.31127 9.90611 2.75261C9.52326 3.17073 9.33184 3.8676 9.33184 4.84321H11.7366V9.82578H6.63996V4.84321C6.63996 3.37979 7.08263 2.21835 7.96795 1.35888C8.87721 0.47619 10.1334 0.0232285 11.7366 0V2.02091Z" fill="#4F4F4F"/>
<path d="M22.9034 0.174216H28V5.15679C28 6.62021 27.5454 7.79326 26.6361 8.67596C25.7508 9.53542 24.5065 9.97677 22.9034 10V7.97909C23.7409 7.93264 24.339 7.70035 24.698 7.28223C25.0808 6.86411 25.2722 6.15563 25.2722 5.15679H22.9034V0.174216ZM16.2634 5.15679V0.209059H21.36V5.15679C21.36 6.64344 20.9054 7.81649 19.9962 8.67596C19.1108 9.53542 17.8666 9.97677 16.2634 10V7.97909C17.1009 7.93264 17.6991 7.70035 18.058 7.28223C18.4408 6.86411 18.6323 6.15563 18.6323 5.15679H16.2634Z" fill="#4F4F4F"/>
</svg>
